<svg xmlns="http://www.w3.org/2000/svg" xmlns:xlink="http://www.w3.org/1999/xlink" width="24px" height="24px" viewBox="0 0 16 16" version="1.1">

    <defs/>
    <g stroke="none" stroke-width="1" fill="none" fill-rule="evenodd">
        <g transform="translate(-280.000000, -491.000000)">
            <g transform="translate(268.000000, 423.000000)">
                <g transform="translate(12.000000, 68.000000)">
                    <g>
                        <rect x="0" y="0" width="16" height="16"/>
                        <path d="M2,12.5857864 L2,8 L2,7 L0,7 L0,8 L0,15 L0,16 L0.5,16 L1,16 L8,16 L9,16 L9,14 L8,14 L3.41421356,14 L14,3.41421356 L14,8 L14,9 L16,9 L16,8 L16,1 L16,0 L15.5,0 L15,0 L8,0 L7,0 L7,2 L8,2 L12.5857864,2 L2,12.5857864 Z" fill="currentColor"/>
                    </g>
                </g>
            </g>
        </g>
    </g>
</svg>